<mxfile host="app.diagrams.net" modified="2023-05-05T22:27:57.707Z" agent="Mozilla/5.0 (Windows NT 10.0; Win64; x64) AppleWebKit/537.36 (KHTML, like Gecko) Chrome/113.0.0.0 Safari/537.36" etag="NbRqvNcEqwHX8F0QOq_Z" version="21.2.9" type="device">
  <diagram name="Página-1" id="5JPqcdefpZzlcO88xkoX">
    <mxGraphModel dx="880" dy="476" grid="1" gridSize="10" guides="1" tooltips="1" connect="1" arrows="1" fold="1" page="1" pageScale="1" pageWidth="827" pageHeight="1169" math="0" shadow="0">
      <root>
        <mxCell id="0" />
        <mxCell id="1" parent="0" />
        <mxCell id="CAB6P6lX2wbS1SANpMkC-1" style="edgeStyle=orthogonalEdgeStyle;rounded=0;orthogonalLoop=1;jettySize=auto;html=1;" edge="1" parent="1" source="xon4Pw86TMfoOt6nrVfN-6" target="xon4Pw86TMfoOt6nrVfN-60">
          <mxGeometry relative="1" as="geometry" />
        </mxCell>
        <mxCell id="xon4Pw86TMfoOt6nrVfN-6" value="Ganhos" style="swimlane;fontStyle=0;childLayout=stackLayout;horizontal=1;startSize=30;horizontalStack=0;resizeParent=1;resizeParentMax=0;resizeLast=0;collapsible=1;marginBottom=0;whiteSpace=wrap;html=1;fillColor=none;" parent="1" vertex="1">
          <mxGeometry x="140" y="180" width="140" height="110" as="geometry" />
        </mxCell>
        <mxCell id="xon4Pw86TMfoOt6nrVfN-7" value="Tipo&lt;br&gt;&lt;br&gt;Data&lt;br&gt;&lt;br&gt;Valor" style="text;strokeColor=none;fillColor=none;align=left;verticalAlign=middle;spacingLeft=4;spacingRight=4;overflow=hidden;points=[[0,0.5],[1,0.5]];portConstraint=eastwest;rotatable=0;whiteSpace=wrap;html=1;" parent="xon4Pw86TMfoOt6nrVfN-6" vertex="1">
          <mxGeometry y="30" width="140" height="80" as="geometry" />
        </mxCell>
        <mxCell id="xon4Pw86TMfoOt6nrVfN-10" value="Gestão financeira" style="swimlane;fontStyle=0;childLayout=stackLayout;horizontal=1;startSize=30;horizontalStack=0;resizeParent=1;resizeParentMax=0;resizeLast=0;collapsible=1;marginBottom=0;whiteSpace=wrap;html=1;" parent="1" vertex="1">
          <mxGeometry x="344" y="30" width="140" height="170" as="geometry" />
        </mxCell>
        <mxCell id="xon4Pw86TMfoOt6nrVfN-11" value="+Adicionar _Gasto&lt;br&gt;&lt;br style=&quot;box-sizing: border-box; color: rgb(64, 64, 64); font-family: &amp;quot;Helvetica Neue&amp;quot;, Helvetica, Arial, sans-serif; font-size: 13px; background-color: rgb(255, 255, 255);&quot;&gt;&lt;span style=&quot;color: rgb(64, 64, 64); font-family: &amp;quot;Helvetica Neue&amp;quot;, Helvetica, Arial, sans-serif; font-size: 13px; background-color: rgb(255, 255, 255);&quot;&gt;+Adicionar_Ganho&lt;br&gt;&lt;/span&gt;&lt;br style=&quot;box-sizing: border-box; color: rgb(64, 64, 64); font-family: &amp;quot;Helvetica Neue&amp;quot;, Helvetica, Arial, sans-serif; font-size: 13px; background-color: rgb(255, 255, 255);&quot;&gt;&lt;span style=&quot;color: rgb(64, 64, 64); font-family: &amp;quot;Helvetica Neue&amp;quot;, Helvetica, Arial, sans-serif; font-size: 13px; background-color: rgb(255, 255, 255);&quot;&gt;+Relatório_de_Gastos&lt;br&gt;&lt;/span&gt;&lt;br style=&quot;box-sizing: border-box; color: rgb(64, 64, 64); font-family: &amp;quot;Helvetica Neue&amp;quot;, Helvetica, Arial, sans-serif; font-size: 13px; background-color: rgb(255, 255, 255);&quot;&gt;&lt;span style=&quot;color: rgb(64, 64, 64); font-family: &amp;quot;Helvetica Neue&amp;quot;, Helvetica, Arial, sans-serif; font-size: 13px; background-color: rgb(255, 255, 255);&quot;&gt;+Relatório_de_Ganhos&lt;br&gt;&lt;/span&gt;&lt;br style=&quot;box-sizing: border-box; color: rgb(64, 64, 64); font-family: &amp;quot;Helvetica Neue&amp;quot;, Helvetica, Arial, sans-serif; font-size: 13px; background-color: rgb(255, 255, 255);&quot;&gt;&lt;span style=&quot;color: rgb(64, 64, 64); font-family: &amp;quot;Helvetica Neue&amp;quot;, Helvetica, Arial, sans-serif; font-size: 13px; background-color: rgb(255, 255, 255);&quot;&gt;+Relatório_Mensal&lt;br&gt;&lt;/span&gt;&lt;br style=&quot;box-sizing: border-box; color: rgb(64, 64, 64); font-family: &amp;quot;Helvetica Neue&amp;quot;, Helvetica, Arial, sans-serif; font-size: 13px; background-color: rgb(255, 255, 255);&quot;&gt;&lt;span style=&quot;color: rgb(64, 64, 64); font-family: &amp;quot;Helvetica Neue&amp;quot;, Helvetica, Arial, sans-serif; font-size: 13px; background-color: rgb(255, 255, 255);&quot;&gt;&lt;br&gt;&lt;br&gt;&lt;/span&gt;" style="text;strokeColor=none;fillColor=none;align=left;verticalAlign=middle;spacingLeft=4;spacingRight=4;overflow=hidden;points=[[0,0.5],[1,0.5]];portConstraint=eastwest;rotatable=0;whiteSpace=wrap;html=1;" parent="xon4Pw86TMfoOt6nrVfN-10" vertex="1">
          <mxGeometry y="30" width="140" height="140" as="geometry" />
        </mxCell>
        <mxCell id="xon4Pw86TMfoOt6nrVfN-14" value="Adicionar Gasto" style="swimlane;fontStyle=0;childLayout=stackLayout;horizontal=1;startSize=30;horizontalStack=0;resizeParent=1;resizeParentMax=0;resizeLast=0;collapsible=1;marginBottom=0;whiteSpace=wrap;html=1;" parent="1" vertex="1">
          <mxGeometry x="540" y="370" width="140" height="180" as="geometry" />
        </mxCell>
        <mxCell id="xon4Pw86TMfoOt6nrVfN-15" value="Habitação&lt;br&gt;&lt;br style=&quot;box-sizing: border-box; color: rgb(64, 64, 64); font-family: &amp;quot;Helvetica Neue&amp;quot;, Helvetica, Arial, sans-serif; font-size: 13px; background-color: rgb(255, 255, 255);&quot;&gt;&lt;span style=&quot;color: rgb(64, 64, 64); font-family: &amp;quot;Helvetica Neue&amp;quot;, Helvetica, Arial, sans-serif; font-size: 13px; background-color: rgb(255, 255, 255);&quot;&gt;Entretenimento&lt;/span&gt;&lt;br style=&quot;box-sizing: border-box; color: rgb(64, 64, 64); font-family: &amp;quot;Helvetica Neue&amp;quot;, Helvetica, Arial, sans-serif; font-size: 13px; background-color: rgb(255, 255, 255);&quot;&gt;&lt;span style=&quot;color: rgb(64, 64, 64); font-family: &amp;quot;Helvetica Neue&amp;quot;, Helvetica, Arial, sans-serif; font-size: 13px; background-color: rgb(255, 255, 255);&quot;&gt;&lt;br&gt;Alimentação&lt;/span&gt;&lt;br style=&quot;box-sizing: border-box; color: rgb(64, 64, 64); font-family: &amp;quot;Helvetica Neue&amp;quot;, Helvetica, Arial, sans-serif; font-size: 13px; background-color: rgb(255, 255, 255);&quot;&gt;&lt;span style=&quot;color: rgb(64, 64, 64); font-family: &amp;quot;Helvetica Neue&amp;quot;, Helvetica, Arial, sans-serif; font-size: 13px; background-color: rgb(255, 255, 255);&quot;&gt;&lt;br&gt;Transporte&lt;/span&gt;&lt;br style=&quot;box-sizing: border-box; color: rgb(64, 64, 64); font-family: &amp;quot;Helvetica Neue&amp;quot;, Helvetica, Arial, sans-serif; font-size: 13px; background-color: rgb(255, 255, 255);&quot;&gt;&lt;span style=&quot;color: rgb(64, 64, 64); font-family: &amp;quot;Helvetica Neue&amp;quot;, Helvetica, Arial, sans-serif; font-size: 13px; background-color: rgb(255, 255, 255);&quot;&gt;&lt;br&gt;SEU GASTO&lt;/span&gt;&lt;br style=&quot;box-sizing: border-box; color: rgb(64, 64, 64); font-family: &amp;quot;Helvetica Neue&amp;quot;, Helvetica, Arial, sans-serif; font-size: 13px; background-color: rgb(255, 255, 255);&quot;&gt;&lt;span style=&quot;color: rgb(64, 64, 64); font-family: &amp;quot;Helvetica Neue&amp;quot;, Helvetica, Arial, sans-serif; font-size: 13px; background-color: rgb(255, 255, 255);&quot;&gt;&lt;br&gt;&lt;/span&gt;" style="text;strokeColor=none;fillColor=none;align=left;verticalAlign=middle;spacingLeft=4;spacingRight=4;overflow=hidden;points=[[0,0.5],[1,0.5]];portConstraint=eastwest;rotatable=0;whiteSpace=wrap;html=1;" parent="xon4Pw86TMfoOt6nrVfN-14" vertex="1">
          <mxGeometry y="30" width="140" height="150" as="geometry" />
        </mxCell>
        <mxCell id="xon4Pw86TMfoOt6nrVfN-67" style="edgeStyle=orthogonalEdgeStyle;rounded=0;orthogonalLoop=1;jettySize=auto;html=1;entryX=0.5;entryY=0;entryDx=0;entryDy=0;" parent="1" source="xon4Pw86TMfoOt6nrVfN-26" target="xon4Pw86TMfoOt6nrVfN-14" edge="1">
          <mxGeometry relative="1" as="geometry" />
        </mxCell>
        <mxCell id="xon4Pw86TMfoOt6nrVfN-26" value="Gasto" style="swimlane;fontStyle=0;childLayout=stackLayout;horizontal=1;startSize=30;horizontalStack=0;resizeParent=1;resizeParentMax=0;resizeLast=0;collapsible=1;marginBottom=0;whiteSpace=wrap;html=1;" parent="1" vertex="1">
          <mxGeometry x="540" y="180" width="140" height="140" as="geometry" />
        </mxCell>
        <mxCell id="xon4Pw86TMfoOt6nrVfN-27" value="Tipo&lt;br&gt;&lt;br&gt;Data&lt;br&gt;&lt;br&gt;Valor&lt;br&gt;&lt;br&gt;Forma_de_Pagamento" style="text;strokeColor=none;fillColor=none;align=left;verticalAlign=middle;spacingLeft=4;spacingRight=4;overflow=hidden;points=[[0,0.5],[1,0.5]];portConstraint=eastwest;rotatable=0;whiteSpace=wrap;html=1;" parent="xon4Pw86TMfoOt6nrVfN-26" vertex="1">
          <mxGeometry y="30" width="140" height="110" as="geometry" />
        </mxCell>
        <mxCell id="xon4Pw86TMfoOt6nrVfN-60" value="Relatório de Pagamento" style="swimlane;fontStyle=0;childLayout=stackLayout;horizontal=1;startSize=30;horizontalStack=0;resizeParent=1;resizeParentMax=0;resizeLast=0;collapsible=1;marginBottom=0;whiteSpace=wrap;html=1;" parent="1" vertex="1">
          <mxGeometry x="260" y="620" width="140" height="100" as="geometry" />
        </mxCell>
        <mxCell id="xon4Pw86TMfoOt6nrVfN-61" value="&lt;br style=&quot;box-sizing: border-box; color: rgb(64, 64, 64); font-family: &amp;quot;Helvetica Neue&amp;quot;, Helvetica, Arial, sans-serif; font-size: 13px; background-color: rgb(255, 255, 255);&quot;&gt;&lt;span style=&quot;color: rgb(64, 64, 64); font-family: &amp;quot;Helvetica Neue&amp;quot;, Helvetica, Arial, sans-serif; font-size: 13px; background-color: rgb(255, 255, 255);&quot;&gt;Selecione_o_mês:&lt;/span&gt;&lt;br style=&quot;box-sizing: border-box; color: rgb(64, 64, 64); font-family: &amp;quot;Helvetica Neue&amp;quot;, Helvetica, Arial, sans-serif; font-size: 13px; background-color: rgb(255, 255, 255);&quot;&gt;&lt;span style=&quot;color: rgb(64, 64, 64); font-family: &amp;quot;Helvetica Neue&amp;quot;, Helvetica, Arial, sans-serif; font-size: 13px; background-color: rgb(255, 255, 255);&quot;&gt;&lt;br&gt;Selecione_o_ano:&lt;/span&gt;" style="text;strokeColor=none;fillColor=none;align=left;verticalAlign=middle;spacingLeft=4;spacingRight=4;overflow=hidden;points=[[0,0.5],[1,0.5]];portConstraint=eastwest;rotatable=0;whiteSpace=wrap;html=1;" parent="xon4Pw86TMfoOt6nrVfN-60" vertex="1">
          <mxGeometry y="30" width="140" height="70" as="geometry" />
        </mxCell>
        <mxCell id="xon4Pw86TMfoOt6nrVfN-62" value="Relatório mensal" style="swimlane;fontStyle=0;childLayout=stackLayout;horizontal=1;startSize=30;horizontalStack=0;resizeParent=1;resizeParentMax=0;resizeLast=0;collapsible=1;marginBottom=0;whiteSpace=wrap;html=1;" parent="1" vertex="1">
          <mxGeometry x="260" y="720" width="140" height="160" as="geometry" />
        </mxCell>
        <mxCell id="xon4Pw86TMfoOt6nrVfN-63" value="&lt;font face=&quot;Helvetica Neue, Helvetica, Arial, sans-serif&quot; color=&quot;#404040&quot;&gt;&lt;span style=&quot;font-size: 13px; background-color: rgb(255, 255, 255);&quot;&gt;Fevereiro de 2023&lt;/span&gt;&lt;/font&gt;&lt;br style=&quot;box-sizing: border-box; color: rgb(64, 64, 64); font-family: &amp;quot;Helvetica Neue&amp;quot;, Helvetica, Arial, sans-serif; font-size: 13px; background-color: rgb(255, 255, 255);&quot;&gt;&lt;span style=&quot;color: rgb(64, 64, 64); font-family: &amp;quot;Helvetica Neue&amp;quot;, Helvetica, Arial, sans-serif; font-size: 13px; background-color: rgb(255, 255, 255);&quot;&gt;&lt;br&gt;Ganho Total : R$ 7,000.99&lt;/span&gt;&lt;br style=&quot;box-sizing: border-box; color: rgb(64, 64, 64); font-family: &amp;quot;Helvetica Neue&amp;quot;, Helvetica, Arial, sans-serif; font-size: 13px; background-color: rgb(255, 255, 255);&quot;&gt;&lt;span style=&quot;color: rgb(64, 64, 64); font-family: &amp;quot;Helvetica Neue&amp;quot;, Helvetica, Arial, sans-serif; font-size: 13px; background-color: rgb(255, 255, 255);&quot;&gt;&lt;br&gt;Gasto total : R$10,000.99&lt;/span&gt;&lt;br style=&quot;box-sizing: border-box; color: rgb(64, 64, 64); font-family: &amp;quot;Helvetica Neue&amp;quot;, Helvetica, Arial, sans-serif; font-size: 13px; background-color: rgb(255, 255, 255);&quot;&gt;&lt;span style=&quot;color: rgb(64, 64, 64); font-family: &amp;quot;Helvetica Neue&amp;quot;, Helvetica, Arial, sans-serif; font-size: 13px; background-color: rgb(255, 255, 255);&quot;&gt;Saldo: - R$ 3,000.00&lt;/span&gt;" style="text;strokeColor=none;fillColor=none;align=left;verticalAlign=middle;spacingLeft=4;spacingRight=4;overflow=hidden;points=[[0,0.5],[1,0.5]];portConstraint=eastwest;rotatable=0;whiteSpace=wrap;html=1;" parent="xon4Pw86TMfoOt6nrVfN-62" vertex="1">
          <mxGeometry y="30" width="140" height="130" as="geometry" />
        </mxCell>
        <mxCell id="xon4Pw86TMfoOt6nrVfN-64" style="edgeStyle=orthogonalEdgeStyle;rounded=0;orthogonalLoop=1;jettySize=auto;html=1;entryX=0.5;entryY=0;entryDx=0;entryDy=0;" parent="1" source="xon4Pw86TMfoOt6nrVfN-11" target="xon4Pw86TMfoOt6nrVfN-6" edge="1">
          <mxGeometry relative="1" as="geometry" />
        </mxCell>
        <mxCell id="xon4Pw86TMfoOt6nrVfN-65" style="edgeStyle=orthogonalEdgeStyle;rounded=0;orthogonalLoop=1;jettySize=auto;html=1;entryX=0.557;entryY=0;entryDx=0;entryDy=0;entryPerimeter=0;" parent="1" source="xon4Pw86TMfoOt6nrVfN-11" target="xon4Pw86TMfoOt6nrVfN-26" edge="1">
          <mxGeometry relative="1" as="geometry" />
        </mxCell>
        <mxCell id="CAB6P6lX2wbS1SANpMkC-2" style="edgeStyle=orthogonalEdgeStyle;rounded=0;orthogonalLoop=1;jettySize=auto;html=1;entryX=0.5;entryY=0;entryDx=0;entryDy=0;" edge="1" parent="1" source="xon4Pw86TMfoOt6nrVfN-68" target="xon4Pw86TMfoOt6nrVfN-60">
          <mxGeometry relative="1" as="geometry" />
        </mxCell>
        <mxCell id="xon4Pw86TMfoOt6nrVfN-68" value="Informe_a_data:&lt;br style=&quot;border-color: var(--border-color); text-align: left; box-sizing: border-box; color: rgb(64, 64, 64); font-family: &amp;quot;Helvetica Neue&amp;quot;, Helvetica, Arial, sans-serif; font-size: 13px; background-color: rgb(255, 255, 255);&quot;&gt;&lt;span style=&quot;border-color: var(--border-color); text-align: left; color: rgb(64, 64, 64); font-family: &amp;quot;Helvetica Neue&amp;quot;, Helvetica, Arial, sans-serif; font-size: 13px; background-color: rgb(255, 255, 255);&quot;&gt;&lt;br style=&quot;border-color: var(--border-color);&quot;&gt;Informe_o_valor:&lt;/span&gt;" style="html=1;whiteSpace=wrap;" parent="1" vertex="1">
          <mxGeometry x="540" y="550" width="140" height="60" as="geometry" />
        </mxCell>
      </root>
    </mxGraphModel>
  </diagram>
</mxfile>
